<svg width="26" height="26" viewBox="0 0 26 26" fill="none" xmlns="http://www.w3.org/2000/svg">
<path fill-rule="evenodd" clip-rule="evenodd" d="M25.48 13.2955C25.48 12.3737 25.3973 11.4873 25.2436 10.6364H13V15.665H19.9964C19.695 17.29 18.7791 18.6668 17.4023 19.5887V22.8505H21.6036C24.0618 20.5873 25.48 17.2546 25.48 13.2955Z" fill="#4285F4"/>
<path fill-rule="evenodd" clip-rule="evenodd" d="M13 26C16.51 26 19.4527 24.8359 21.6036 22.8505L17.4022 19.5886C16.2381 20.3686 14.7491 20.8295 13 20.8295C9.61405 20.8295 6.74814 18.5427 5.72587 15.47H1.38269V18.8382C3.52178 23.0868 7.91815 26 13 26Z" fill="#34A853"/>
<path fill-rule="evenodd" clip-rule="evenodd" d="M5.72591 15.47C5.46591 14.69 5.31818 13.8568 5.31818 13C5.31818 12.1432 5.46591 11.31 5.72591 10.53V7.16183H1.38273C0.502273 8.91683 0 10.9023 0 13C0 15.0977 0.502273 17.0832 1.38273 18.8382L5.72591 15.47Z" fill="#FBBC05"/>
<path fill-rule="evenodd" clip-rule="evenodd" d="M13 5.17045C14.9086 5.17045 16.6222 5.82636 17.9695 7.11455L21.6981 3.38591C19.4468 1.28818 16.5041 0 13 0C7.91815 0 3.52178 2.91318 1.38269 7.16182L5.72587 10.53C6.74814 7.45727 9.61405 5.17045 13 5.17045Z" fill="#EA4335"/>
</svg>
