<svg width="55" height="55" viewBox="0 0 55 55" fill="none" xmlns="http://www.w3.org/2000/svg">
<path d="M51.7416 14.4492L29.4824 0.71318C27.9559 -0.237727 26.058 -0.237727 24.5316 0.71318L2.27234 14.4492C0.850282 15.3335 9.81709e-07 16.8764 9.81709e-07 18.573C-0.00105396 20.2718 0.848172 21.8158 2.27128 22.7011L24.5316 36.6521C26.0612 37.6019 27.9517 37.6019 29.4813 36.6521L51.7405 22.7011C53.1636 21.8147 54.0139 20.2707 54.0118 18.573C54.0129 16.8764 53.1626 15.3335 51.7416 14.4492Z" fill="#FFB800"/>
<path d="M53.1911 25.5764L31.1323 39.4027C28.5688 40.9951 25.3839 40.9585 22.8848 39.4059L0.821798 25.5775C0.310153 26.3565 9.81709e-07 26.1899 9.81709e-07 27.1688C-0.00105396 28.8675 0.848172 30.4115 2.27128 31.2969L24.5316 45.2478C26.0612 46.1977 27.9517 46.1977 29.4813 45.2478L51.7405 31.2969C53.1636 30.4105 54.0139 29.9409 54.0118 28.2433C54.0129 27.2644 53.7027 26.3554 53.1911 25.5764Z" fill="white"/>
<path d="M53.1911 34.1721L31.1323 47.9984C28.5931 49.5768 25.4261 49.5779 22.8848 48.0016L0.821798 34.1721C0.310153 34.9511 9.81709e-07 35.2283 9.81709e-07 36.2072C-0.00105396 37.9059 0.848172 39.4499 2.27128 40.3353L24.5316 54.2862C26.0612 55.236 27.9517 55.236 29.4813 54.2862L51.7405 40.3353C53.1636 39.4488 54.0139 37.9048 54.0118 36.2072C54.0129 35.2283 53.7027 34.9511 53.1911 34.1721Z" fill="#FFB800"/>
</svg>
