<svg width="55" height="55" viewBox="0 0 55 55" fill="none" xmlns="http://www.w3.org/2000/svg">
<path d="M40.6367 54.8946C39.5037 54.6378 38.4833 54.1947 37.7062 53.275C36.9156 52.3401 36.5934 51.2558 36.5934 50.0625C36.5883 44.1326 36.5783 38.2028 36.5967 32.2746C36.6051 29.3861 38.5789 27.4559 41.4675 27.4508C44.3258 27.4458 47.1825 27.4743 50.0408 27.4425C52.5282 27.4156 54.4886 29.0806 54.8243 31.3263C54.8344 31.3935 54.8713 31.4572 54.8965 31.5227C54.8965 37.9561 54.8965 44.3878 54.8965 50.8211C54.5843 51.5663 54.3678 52.372 53.9415 53.0433C53.2365 54.1545 52.0801 54.6429 50.823 54.8946C47.4275 54.8946 44.0321 54.8946 40.6367 54.8946Z" fill="#FFB800"/>
<path d="M45.7221 9.14443C45.3512 9.14443 45.0323 9.14443 44.7117 9.14443C39.0655 9.14443 33.4194 9.12261 27.7748 9.15114C23.7987 9.17128 20.8766 10.9605 19.1176 14.5506C18.468 15.8749 18.3035 17.3082 18.3052 18.7718C18.3136 26.0075 18.3086 33.2431 18.3086 40.4805C18.3086 40.6903 18.3086 40.9001 18.3086 41.1736C18.0467 41.1736 17.8386 41.1736 17.6305 41.1736C13.3774 41.1753 9.12597 41.1753 4.87286 41.1753C1.98934 41.1753 0.00545485 39.2183 0.00377644 36.3465C-0.00125881 25.8413 -0.00125881 15.3344 0.00377644 4.82922C0.00713327 1.97592 1.97424 0.00545485 4.82251 0.00377644C16.8651 -0.00125881 28.9061 -0.00125881 40.9487 0.00377644C43.2683 0.00545485 44.9702 1.28441 45.5862 3.46803C45.6668 3.75671 45.7137 4.06386 45.7171 4.3643C45.7289 5.93026 45.7221 7.49958 45.7221 9.14443Z" fill="#FFB800"/>
<path d="M32.033 50.2572C30.2086 50.2572 28.4647 50.3915 26.751 50.2236C24.6631 50.0188 22.8537 48.1843 22.8638 45.4049C22.8823 40.0625 22.8688 34.7201 22.8688 29.3777C22.8688 25.8043 22.8688 22.231 22.8688 18.6576C22.8688 17.5432 23.1005 16.4992 23.7903 15.5912C24.7319 14.3542 25.9974 13.7365 27.5315 13.7315C33.5704 13.7164 39.6094 13.7097 45.6483 13.7315C48.2733 13.7416 50.1901 15.5962 50.2942 18.2112C50.3546 19.7402 50.3059 21.2726 50.3059 22.8654C50.0474 22.8654 49.8376 22.8638 49.6295 22.8654C46.5748 22.8822 43.5167 22.8168 40.467 22.9393C36.3365 23.1038 32.7111 26.4891 32.174 30.5895C32.0246 31.7342 32.0431 32.904 32.0397 34.0638C32.0263 39.2451 32.0347 44.4264 32.0347 49.6076C32.033 49.8191 32.033 50.0289 32.033 50.2572Z" fill="white"/>
</svg>
