<svg width="73" height="57" viewBox="0 0 73 57" fill="none" xmlns="http://www.w3.org/2000/svg">
<path d="M9.75119 17.7975L12.8782 2.16102C13.2365 0.371133 15.5496 -0.153562 16.6456 1.30628L25.9082 13.6564C27.3779 15.6169 25.5598 16.0739 19.4665 23.5889C11.393 19.6297 9.22932 20.4069 9.75119 17.7975Z" fill="white"/>
<path d="M52.8905 23.5889C46.7634 16.2347 44.7986 15.6677 46.3078 13.6564L55.5704 1.30628C56.6649 -0.153562 58.9795 0.371133 59.3377 2.16102L62.4647 17.7975C63.0078 20.5183 60.3928 19.83 52.8905 23.5889Z" fill="white"/>
<path fill-rule="evenodd" clip-rule="evenodd" d="M53.6839 30.6086L68.8338 19.3404C70.4262 18.157 72.6364 19.6323 72.1484 21.559L66.3655 44.3072L63.6094 46.4229L65.2907 48.5386L63.5445 55.4062C63.3062 56.3427 62.4613 57 61.4937 57H10.7223C9.75471 57 8.90984 56.3427 8.67147 55.4062L6.9253 48.5386L9.67996 46.6119L5.85193 44.3086L0.0689913 21.5604C-0.419032 19.6366 1.78695 18.1542 3.38219 19.3404L18.5307 30.6086L34.2716 3.06491C34.6778 2.35544 35.3943 2 36.1094 2C36.8259 2 37.5396 2.35544 37.9444 3.06491L53.6839 30.6086ZM37.9212 24.1797L44.2669 34.7569C44.6689 35.4268 44.6689 36.2647 44.2669 36.9346L37.9212 47.5118C37.5121 48.193 36.8097 48.5372 36.1087 48.5386C35.4077 48.5386 34.7053 48.1973 34.2934 47.5118L27.9477 36.9346C27.5457 36.2647 27.5457 35.4268 27.9477 34.7569L34.2934 24.1797C34.7025 23.497 35.4063 23.1529 36.1087 23.1529C36.8097 23.1529 37.5093 23.4942 37.9212 24.1797Z" fill="#FFB800"/>
<path d="M21.2988 46.4228C21.2988 47.5907 20.3509 48.5385 19.1831 48.5385H6.92463L5.84985 44.3071H19.1831C20.3509 44.3071 21.2988 45.255 21.2988 46.4228Z" fill="white"/>
<path d="M66.3633 44.3071L65.2886 48.5385H53.0301C51.8623 48.5385 50.9144 47.5907 50.9144 46.4228C50.9144 45.255 51.8623 44.3071 53.0301 44.3071H66.3633Z" fill="white"/>
</svg>
